<?xml version="1.0" encoding="UTF-8"?>
<svg id="Layer_2" data-name="Layer 2" xmlns="http://www.w3.org/2000/svg" viewBox="0 0 597.1 311.01">
  <defs>
    <style>
      .cls-1 {
        fill: #56b281;
      }

      .cls-2 {
        fill: #3d9375;
      }

      .cls-3 {
        fill: #084a55;
      }

      .cls-4 {
        fill: #fff;
      }

      .cls-5 {
        fill: #064a55;
      }

      .cls-6 {
        fill: #1a6d67;
      }
    </style>
  </defs>
  <g id="Official_Logo" data-name="Official Logo">
    <g id="Logo_Layers" data-name="Logo Layers">
      <g id="AGOS">
        <path class="cls-3" d="M318.48,46.06h-1.73l-19.4,40.18h7.3l3.52-8.36h17.77l3.29,8.36h7.23l-17.99-40.18h.01ZM309.9,73.91l7.4-17.45,6.78,17.45h-14.18Z"/>
        <path class="cls-3" d="M363.3,65.73v4.61h6.65v9.29c-2.15,1.73-4.99,2.61-8.48,2.61-4.93,0-8.8-1.4-11.66-4.2-2.85-2.81-4.27-6.49-4.27-11.09s1.46-8.69,4.36-11.62,6.87-4.4,11.9-4.4c3.17,0,6.41,1.02,9.71,3.04l2.72-4.47c-3.15-2.29-7.22-3.44-12.23-3.44-7.15,0-12.82,1.91-17.03,5.73-4.21,3.82-6.31,8.8-6.31,14.94s1.91,11.09,5.75,14.8c3.83,3.72,9.06,5.58,15.68,5.58,2.95,0,5.99-.38,9.11-1.13,3.13-.75,5.57-1.75,7.31-2.97v-17.29h-13.21,0Z"/>
        <path class="cls-3" d="M418.77,51.15c-3.49-3.61-8.52-5.41-15.07-5.41-5.83,0-10.46,1.95-13.88,5.88-3.42,3.93-5.15,8.8-5.15,14.63,0,6.2,1.69,11.28,5.05,15.24,3.37,3.95,8.03,5.94,13.98,5.94,6.53,0,11.55-1.88,15.05-5.62,3.5-3.76,5.26-8.94,5.26-15.56s-1.75-11.49-5.25-15.1h.01ZM413.78,78.22c-2.31,2.84-5.67,4.26-10.07,4.26-3.9,0-6.9-1.56-9.05-4.65-2.14-3.1-3.21-6.96-3.21-11.59s1.05-8.59,3.13-11.39c2.09-2.78,5.14-4.18,9.13-4.18,9.02,0,13.54,5.19,13.54,15.56,0,5.14-1.16,9.12-3.47,11.97v.02Z"/>
        <path class="cls-3" d="M429.07,84.62l2.48-4.99c1.27.74,2.85,1.36,4.74,1.86s3.59.75,5.08.75c2.65,0,4.78-.58,6.39-1.73,1.61-1.16,2.41-2.63,2.41-4.42,0-1.34-.45-2.58-1.34-3.73s-3.14-2.4-6.75-3.75l-4.01-1.49c-3.4-1.26-5.77-2.76-7.12-4.5s-2.02-3.82-2.02-6.26c0-2.96,1.31-5.42,3.94-7.37s6-2.93,10.13-2.93c5.51,0,9.33.71,11.49,2.14l-2,4.71c-.91-.52-2.29-1.03-4.15-1.52s-3.58-.73-5.17-.73c-2.31,0-4.13.52-5.45,1.57-1.33,1.05-1.99,2.39-1.99,4.04,0,1.01.24,1.93.71,2.76.47.83,1.14,1.53,1.99,2.09s2.59,1.35,5.22,2.36l4.08,1.54c3.4,1.28,5.78,2.81,7.15,4.59s2.06,4.04,2.06,6.79c0,2.98-1.5,5.51-4.5,7.59s-7.02,3.12-12.05,3.12c-4.42,0-8.19-.83-11.32-2.49h0Z"/>
      </g>
      <g id="ARBON">
        <path class="cls-3" d="M334.85,98.16h-1.81l-20.29,40.04h7.63l3.69-8.34h18.59l3.45,8.34h7.58l-18.83-40.04h-.01ZM325.88,125.91l7.74-17.4,7.09,17.4h-14.83Z"/>
        <path class="cls-3" d="M379.88,119.96c2.66-.49,4.95-1.72,6.88-3.72,1.93-1.99,2.89-4.23,2.89-6.72,0-7.58-5.99-11.37-17.97-11.37-1.5,0-3.89.07-7.17.2-3.28.14-5.05.21-5.29.21v39.63h6.8v-17.29c3.29.18,5.7.27,7.21.27l13.31,17.02h7.8l-14.47-18.24h.01ZM370.8,116.58c-1.55,0-3.14-.09-4.77-.28v-12.88c2-.18,3.34-.27,4.02-.27,4.31,0,7.47.49,9.47,1.46,1.99.97,2.99,2.57,2.99,4.79,0,2.68-.94,4.55-2.79,5.6-1.86,1.04-4.84,1.57-8.91,1.57h0Z"/>
        <path class="cls-3" d="M414.21,138.19h-14.43v-39.39c6.14-.23,10.57-.35,13.29-.35,4.99,0,8.86.84,11.6,2.51,2.74,1.68,4.11,4.07,4.11,7.19,0,1.83-.87,3.5-2.62,5-1.75,1.51-3.68,2.45-5.8,2.82,4,.75,6.92,2,8.75,3.74s2.74,4.11,2.74,7.1c0,3.46-1.63,6.22-4.88,8.28-3.26,2.06-7.51,3.09-12.75,3.09h0ZM406.69,103.1v11.32c1.45.11,3.24.16,5.38.16,6.54,0,9.8-2.07,9.8-6.21,0-3.64-3-5.46-9.01-5.46-2.3,0-4.36.06-6.18.19h.01ZM406.69,118.59v15.03c2.37.18,4.19.27,5.45.27,4.33,0,7.48-.63,9.48-1.9,1.99-1.26,2.99-3.28,2.99-6.04,0-2.56-.95-4.45-2.85-5.67-1.9-1.22-5.07-1.83-9.51-1.83l-5.56.13h0Z"/>
        <path class="cls-3" d="M437.34,118.12c0-5.73,1.83-10.53,5.5-14.39s8.61-5.79,14.84-5.79c7.01,0,12.38,1.78,16.11,5.33s5.6,8.5,5.6,14.85-1.87,11.61-5.62,15.3-9.11,5.53-16.09,5.53c-6.36,0-11.34-1.95-14.94-5.84-3.6-3.9-5.39-8.89-5.39-14.99h0ZM444.58,118.12c0,4.54,1.14,8.34,3.43,11.39,2.29,3.05,5.51,4.57,9.67,4.57,4.71,0,8.3-1.4,10.77-4.19,2.47-2.8,3.7-6.72,3.7-11.77,0-10.21-4.82-15.31-14.47-15.31-4.27,0-7.52,1.37-9.75,4.11s-3.34,6.47-3.34,11.2h-.01Z"/>
        <path class="cls-3" d="M519.37,138.95l-26.15-28.97v28.43h-6.56v-39.63h2.76l25.46,27.4v-27.4h6.57v40.17h-2.08Z"/>
      </g>
      <g id="Tagline">
        <path class="cls-3" d="M323.4,155.39c.45.39.68,1,.68,1.83,0,2.02-1.41,3.03-4.22,3.03h-2.94v-10.65h2.52c1.35,0,2.38.22,3.1.67.72.44,1.07,1.12,1.07,2.03,0,.62-.19,1.13-.58,1.55-.39.41-.86.68-1.41.79.73.12,1.32.38,1.78.77v-.02ZM318.39,150.75v3.36h1.61c.62,0,1.13-.15,1.52-.45.4-.3.59-.72.59-1.27,0-.62-.21-1.05-.63-1.28-.42-.24-1.05-.35-1.89-.35h-1.21.01ZM321.85,158.68c.46-.26.69-.75.69-1.47s-.22-1.21-.67-1.52-1.02-.46-1.73-.46h-1.75v3.83h1.47c.87,0,1.53-.13,1.99-.39h0Z"/>
        <path class="cls-3" d="M332.31,160.24h-1.22l-.11-1.27c-.31.51-.67.87-1.07,1.11-.4.23-.89.35-1.47.35-.71,0-1.27-.22-1.67-.65-.4-.43-.6-1.05-.6-1.84v-5.85h1.42v5.69c0,.56.1.95.29,1.18.2.23.51.35.96.35.79,0,1.47-.47,2.04-1.41v-5.81h1.42v8.15h0Z"/>
        <path class="cls-3" d="M336.67,148.46c.19.19.28.42.28.7s-.09.51-.28.69-.43.27-.73.27-.53-.09-.71-.27-.28-.41-.28-.69.09-.51.28-.7.42-.28.71-.28.54.09.73.28ZM336.67,152.1v8.15h-1.42v-8.15h1.42Z"/>
        <path class="cls-3" d="M339.99,159.96c-.3-.31-.46-.76-.46-1.32v-9.82l1.42-.17v9.96c0,.23.04.39.12.5.08.1.21.15.39.15.2,0,.37-.03.53-.09l.37.99c-.34.19-.72.28-1.13.28-.53,0-.94-.16-1.24-.47h0Z"/>
        <path class="cls-3" d="M348.25,159.87c-.54.37-1.14.56-1.82.56s-1.23-.2-1.62-.6c-.39-.4-.58-.97-.58-1.72v-4.92h-1.42v-1.1h1.42v-1.84l1.42-.17v2.01h1.93l-.16,1.1h-1.78v4.85c0,.42.07.73.22.92s.4.29.75.29c.32,0,.68-.11,1.08-.32l.54.94h.02Z"/>
        <path class="cls-3" d="M355.66,150.08c-.19.19-.28.49-.28.89v1.13h1.98l-.15,1.1h-1.83v7.05h-1.42v-7.05h-1.45v-1.1h1.45v-1.11c0-.7.22-1.27.67-1.69.45-.43,1.07-.64,1.88-.64.37,0,.7.03,1,.1s.61.17.95.32l-.45,1.04c-.46-.21-.94-.31-1.42-.31-.43,0-.74.09-.93.29v-.02Z"/>
        <path class="cls-3" d="M364.57,153.05c.63.76.95,1.8.95,3.11,0,.85-.14,1.59-.43,2.23-.29.64-.71,1.14-1.25,1.5-.55.36-1.2.53-1.95.53-1.14,0-2.04-.38-2.67-1.14-.64-.76-.96-1.8-.96-3.11,0-.85.14-1.59.43-2.23.29-.64.71-1.14,1.25-1.5.55-.35,1.2-.53,1.96-.53,1.14,0,2.03.38,2.67,1.14ZM359.79,156.18c0,2.07.7,3.11,2.1,3.11s2.1-1.04,2.1-3.12-.7-3.11-2.09-3.11-2.12,1.04-2.12,3.12h0Z"/>
        <path class="cls-3" d="M372.22,152l-.26,1.39c-.25-.06-.49-.09-.71-.09-.5,0-.91.19-1.22.56s-.55.95-.73,1.73v4.65h-1.42v-8.15h1.22l.14,1.65c.22-.61.51-1.07.88-1.38s.8-.46,1.3-.46c.29,0,.56.03.8.09h0Z"/>
        <path class="cls-3" d="M385.49,160.24h-1.96l-4.33-9.05c.06.71.11,1.37.15,1.97s.06,1.33.06,2.19v4.89h-1.38v-10.65h1.92l4.38,9.06c-.03-.27-.07-.74-.12-1.41s-.08-1.28-.08-1.84v-5.81h1.38v10.65h-.02Z"/>
        <path class="cls-3" d="M389.93,148.46c.19.19.28.42.28.7s-.09.51-.28.69-.43.27-.73.27-.53-.09-.71-.27-.28-.41-.28-.69.09-.51.28-.7.42-.28.71-.28.54.09.73.28ZM389.93,152.1v8.15h-1.42v-8.15h1.42Z"/>
        <path class="cls-3" d="M399.44,152.47c-.31.1-.65.17-1.02.2s-.83.05-1.36.05c.96.43,1.44,1.12,1.44,2.06,0,.81-.28,1.48-.83,1.99-.56.52-1.31.77-2.27.77-.37,0-.72-.05-1.04-.15-.12.08-.22.19-.29.33s-.11.28-.11.42c0,.44.36.67,1.07.67h1.3c.55,0,1.03.1,1.45.29.42.2.75.46.98.8s.35.73.35,1.16c0,.79-.32,1.4-.97,1.83-.65.43-1.6.64-2.85.64-.88,0-1.57-.09-2.08-.27s-.87-.45-1.09-.81c-.22-.36-.32-.83-.32-1.39h1.28c0,.33.06.59.19.78.12.19.35.33.67.43s.77.15,1.36.15c.86,0,1.47-.11,1.83-.32s.55-.53.55-.95c0-.38-.14-.67-.43-.87-.29-.2-.69-.29-1.21-.29h-1.28c-.69,0-1.21-.15-1.57-.44-.35-.29-.53-.66-.53-1.11,0-.27.08-.53.23-.77.15-.25.38-.47.66-.66-.47-.25-.82-.55-1.04-.92-.22-.37-.33-.81-.33-1.34s.14-1.04.41-1.47c.27-.43.65-.77,1.13-1.01.48-.24,1.01-.36,1.6-.36.64.01,1.17-.01,1.61-.07.43-.06.79-.13,1.07-.23s.63-.24,1.04-.42l.42,1.28h-.02ZM394.05,153.43c-.29.34-.44.78-.44,1.32s.15,1,.45,1.34c.3.33.72.5,1.27.5s.98-.16,1.28-.49.44-.78.44-1.37c0-1.21-.58-1.81-1.75-1.81-.54,0-.95.17-1.24.5h-.01Z"/>
        <path class="cls-3" d="M406.78,156.66h-5.2c.06.9.29,1.56.68,1.98s.9.63,1.52.63c.39,0,.75-.06,1.08-.17s.68-.29,1.04-.54l.62.85c-.87.68-1.81,1.02-2.85,1.02-1.13,0-2.02-.37-2.65-1.11s-.95-1.76-.95-3.06c0-.84.14-1.6.41-2.25.27-.65.67-1.17,1.18-1.54s1.11-.56,1.8-.56c1.08,0,1.91.36,2.49,1.07.58.71.87,1.7.87,2.95,0,.24-.01.48-.03.73h0ZM405.4,155.51c0-.8-.16-1.42-.48-1.84-.32-.42-.8-.63-1.44-.63-1.16,0-1.8.86-1.9,2.57h3.82v-.09h0Z"/>
        <path class="cls-3" d="M413.43,152l-.26,1.39c-.25-.06-.49-.09-.71-.09-.5,0-.91.19-1.22.56s-.55.95-.73,1.73v4.65h-1.42v-8.15h1.22l.14,1.65c.22-.61.51-1.07.88-1.38s.8-.46,1.3-.46c.29,0,.56.03.8.09h0Z"/>
        <path class="cls-3" d="M416.48,148.46c.19.19.28.42.28.7s-.09.51-.28.69-.43.27-.73.27-.53-.09-.71-.27-.28-.41-.28-.69.09-.51.28-.7.42-.28.71-.28.54.09.73.28ZM416.48,152.1v8.15h-1.42v-8.15h1.42Z"/>
        <path class="cls-3" d="M425.07,159.08c.11.16.28.28.51.36l-.32.99c-.42-.05-.76-.17-1.02-.36s-.45-.47-.57-.87c-.55.82-1.36,1.22-2.43,1.22-.8,0-1.44-.23-1.9-.68-.46-.45-.7-1.05-.7-1.78,0-.87.31-1.53.94-2,.62-.46,1.51-.7,2.65-.7h1.25v-.6c0-.58-.14-.99-.42-1.24-.28-.25-.71-.37-1.28-.37s-1.33.14-2.19.43l-.36-1.04c1.01-.37,1.95-.56,2.81-.56.96,0,1.68.23,2.15.7.47.47.71,1.14.71,2v3.73c0,.33.06.57.17.73v.04ZM423.48,158.09v-1.87h-1.07c-1.5,0-2.26.56-2.26,1.67,0,.48.12.85.36,1.1s.59.37,1.05.37c.81,0,1.45-.42,1.92-1.27h0Z"/>
        <path class="cls-3" d="M446.3,150.71c.97.75,1.46,2.13,1.46,4.15s-.49,3.36-1.46,4.17c-.97.81-2.16,1.21-3.55,1.21h-2.55v-10.65h2.23c1.61,0,2.9.37,3.87,1.12ZM441.67,150.77v8.32h1.19c.99,0,1.79-.3,2.41-.91.62-.61.93-1.71.93-3.31,0-1.12-.16-1.99-.48-2.59s-.73-1.01-1.22-1.21c-.5-.2-1.08-.3-1.75-.3h-1.08Z"/>
        <path class="cls-3" d="M456.2,156.66h-5.2c.06.9.29,1.56.68,1.98s.9.63,1.52.63c.39,0,.75-.06,1.08-.17s.68-.29,1.04-.54l.62.85c-.87.68-1.81,1.02-2.85,1.02-1.13,0-2.02-.37-2.65-1.11s-.95-1.76-.95-3.06c0-.84.14-1.6.41-2.25.27-.65.67-1.17,1.18-1.54s1.11-.56,1.8-.56c1.08,0,1.91.36,2.49,1.07.58.71.87,1.7.87,2.95,0,.24-.01.48-.03.73h0ZM454.83,155.51c0-.8-.16-1.42-.48-1.84-.32-.42-.8-.63-1.44-.63-1.16,0-1.8.86-1.9,2.57h3.82v-.09h0Z"/>
        <path class="cls-3" d="M462.22,152.14c.44.15.87.39,1.27.7l-.6.9c-.37-.24-.72-.41-1.06-.53-.34-.11-.69-.17-1.06-.17-.46,0-.83.1-1.1.29s-.4.45-.4.78.13.59.38.77c.25.19.71.37,1.37.54.91.23,1.59.54,2.03.93.45.39.67.93.67,1.61,0,.8-.31,1.42-.94,1.84-.62.42-1.38.63-2.28.63-1.24,0-2.26-.36-3.08-1.07l.76-.87c.69.53,1.45.79,2.29.79.53,0,.96-.11,1.27-.33s.47-.52.47-.9c0-.28-.06-.5-.17-.67s-.31-.32-.59-.45-.69-.27-1.22-.41c-.87-.23-1.49-.53-1.88-.91s-.58-.87-.58-1.45c0-.42.13-.81.38-1.15.25-.35.6-.61,1.05-.8s.95-.29,1.51-.29,1.06.08,1.5.23h.01Z"/>
        <path class="cls-3" d="M467.15,148.46c.19.19.28.42.28.7s-.09.51-.28.69-.43.27-.73.27-.53-.09-.71-.27-.28-.41-.28-.69.09-.51.28-.7.42-.28.71-.28.54.09.73.28ZM467.15,152.1v8.15h-1.42v-8.15h1.42Z"/>
        <path class="cls-3" d="M476.66,152.47c-.31.1-.65.17-1.02.2s-.83.05-1.36.05c.96.43,1.44,1.12,1.44,2.06,0,.81-.28,1.48-.83,1.99-.56.52-1.31.77-2.27.77-.37,0-.72-.05-1.04-.15-.12.08-.22.19-.29.33s-.11.28-.11.42c0,.44.36.67,1.07.67h1.3c.55,0,1.03.1,1.45.29.42.2.75.46.98.8s.35.73.35,1.16c0,.79-.32,1.4-.97,1.83-.65.43-1.6.64-2.85.64-.88,0-1.57-.09-2.08-.27s-.87-.45-1.09-.81c-.22-.36-.32-.83-.32-1.39h1.28c0,.33.06.59.19.78.12.19.35.33.67.43s.77.15,1.36.15c.86,0,1.47-.11,1.83-.32s.55-.53.55-.95c0-.38-.14-.67-.43-.87-.29-.2-.69-.29-1.21-.29h-1.28c-.69,0-1.21-.15-1.57-.44-.35-.29-.53-.66-.53-1.11,0-.27.08-.53.23-.77.15-.25.38-.47.66-.66-.47-.25-.82-.55-1.04-.92-.22-.37-.33-.81-.33-1.34s.14-1.04.41-1.47c.27-.43.65-.77,1.13-1.01.48-.24,1.01-.36,1.6-.36.64.01,1.17-.01,1.61-.07.43-.06.79-.13,1.07-.23s.63-.24,1.04-.42l.42,1.28h-.02ZM471.27,153.43c-.29.34-.44.78-.44,1.32s.15,1,.45,1.34c.3.33.72.5,1.27.5s.98-.16,1.28-.49.44-.78.44-1.37c0-1.21-.58-1.81-1.75-1.81-.54,0-.95.17-1.24.5h-.01Z"/>
        <path class="cls-3" d="M483.7,152.57c.42.44.63,1.05.63,1.83v5.85h-1.42v-5.64c0-.58-.11-.98-.32-1.22-.22-.24-.54-.36-.96-.36s-.81.12-1.14.37-.64.6-.93,1.07v5.78h-1.42v-8.15h1.22l.12,1.21c.29-.43.65-.77,1.08-1.02s.9-.37,1.41-.37c.74,0,1.32.22,1.74.66h0Z"/>
        <path class="cls-3" d="M493.31,156.66h-5.2c.06.9.29,1.56.68,1.98s.9.63,1.52.63c.39,0,.75-.06,1.08-.17s.68-.29,1.04-.54l.62.85c-.87.68-1.81,1.02-2.85,1.02-1.13,0-2.02-.37-2.65-1.11s-.95-1.76-.95-3.06c0-.84.14-1.6.41-2.25.27-.65.67-1.17,1.18-1.54s1.11-.56,1.8-.56c1.08,0,1.91.36,2.49,1.07.58.71.87,1.7.87,2.95,0,.24-.01.48-.03.73h0ZM491.94,155.51c0-.8-.16-1.42-.48-1.84-.32-.42-.8-.63-1.44-.63-1.16,0-1.8.86-1.9,2.57h3.82v-.09h0Z"/>
        <path class="cls-3" d="M501.93,148.82v11.43h-1.25l-.14-1.13c-.27.41-.6.73-1.01.97-.4.23-.85.35-1.35.35-.97,0-1.72-.38-2.27-1.14-.54-.76-.81-1.79-.81-3.08,0-.83.13-1.58.39-2.23s.63-1.16,1.11-1.52c.49-.37,1.05-.55,1.7-.55.84,0,1.57.34,2.2,1.01v-4.27l1.42.17h.01ZM499.61,159c.31-.2.61-.5.9-.9v-3.99c-.27-.35-.55-.62-.86-.8-.3-.18-.65-.27-1.03-.27-.63,0-1.12.26-1.46.79-.35.53-.52,1.31-.52,2.35s.16,1.83.48,2.35c.32.52.78.77,1.38.77.43,0,.8-.1,1.11-.3h0Z"/>
        <path class="cls-3" d="M510.8,150.08c-.19.19-.28.49-.28.89v1.13h1.98l-.15,1.1h-1.83v7.05h-1.42v-7.05h-1.45v-1.1h1.45v-1.11c0-.7.22-1.27.67-1.69.45-.43,1.07-.64,1.88-.64.37,0,.7.03,1,.1s.61.17.95.32l-.45,1.04c-.46-.21-.94-.31-1.42-.31-.43,0-.74.09-.93.29v-.02Z"/>
        <path class="cls-3" d="M519.72,153.05c.63.76.95,1.8.95,3.11,0,.85-.14,1.59-.43,2.23s-.71,1.14-1.25,1.5c-.55.36-1.2.53-1.95.53-1.14,0-2.04-.38-2.67-1.14-.64-.76-.96-1.8-.96-3.11,0-.85.14-1.59.43-2.23s.71-1.14,1.25-1.5c.55-.35,1.2-.53,1.96-.53,1.14,0,2.03.38,2.67,1.14ZM514.93,156.18c0,2.07.7,3.11,2.1,3.11s2.1-1.04,2.1-3.12-.7-3.11-2.09-3.11-2.12,1.04-2.12,3.12h.01Z"/>
        <path class="cls-3" d="M527.36,152l-.26,1.39c-.25-.06-.49-.09-.71-.09-.5,0-.91.19-1.22.56s-.55.95-.73,1.73v4.65h-1.42v-8.15h1.22l.14,1.65c.22-.61.51-1.07.88-1.38s.8-.46,1.3-.46c.29,0,.56.03.8.09h0Z"/>
        <path class="cls-3" d="M537.2,159.87c-.54.37-1.14.56-1.82.56s-1.23-.2-1.62-.6-.58-.97-.58-1.72v-4.92h-1.42v-1.1h1.42v-1.84l1.42-.17v2.01h1.93l-.16,1.1h-1.78v4.85c0,.42.07.73.22.92.15.19.4.29.75.29.32,0,.68-.11,1.08-.32l.54.94h.02Z"/>
        <path class="cls-3" d="M544.24,152.57c.42.44.63,1.05.63,1.83v5.85h-1.42v-5.64c0-.58-.11-.98-.33-1.22-.22-.24-.54-.36-.97-.36s-.8.12-1.13.37-.64.6-.93,1.05v5.8h-1.42v-11.41l1.42-.15v4.55c.64-.88,1.44-1.31,2.41-1.31.74,0,1.32.22,1.74.66v-.02Z"/>
        <path class="cls-3" d="M553.85,156.66h-5.2c.06.9.29,1.56.68,1.98s.9.63,1.52.63c.39,0,.75-.06,1.08-.17s.68-.29,1.04-.54l.62.85c-.87.68-1.81,1.02-2.85,1.02-1.13,0-2.02-.37-2.65-1.11s-.95-1.76-.95-3.06c0-.84.14-1.6.41-2.25.27-.65.67-1.17,1.18-1.54s1.11-.56,1.8-.56c1.08,0,1.91.36,2.49,1.07.58.71.87,1.7.87,2.95,0,.24-.01.48-.03.73h0ZM552.47,155.51c0-.8-.16-1.42-.48-1.84-.32-.42-.8-.63-1.44-.63-1.16,0-1.8.86-1.9,2.57h3.82v-.09h0Z"/>
        <path class="cls-3" d="M569.56,152.1l-1.86,8.15h-1.93l-1.42-6.87-1.47,6.87h-1.89l-1.9-8.15h1.42l1.47,7.16,1.61-7.16h1.59l1.53,7.16,1.49-7.16h1.36Z"/>
        <path class="cls-3" d="M577.07,153.05c.63.76.95,1.8.95,3.11,0,.85-.14,1.59-.43,2.23s-.71,1.14-1.25,1.5c-.55.36-1.2.53-1.95.53-1.14,0-2.04-.38-2.67-1.14-.64-.76-.96-1.8-.96-3.11,0-.85.14-1.59.43-2.23s.71-1.14,1.25-1.5c.55-.35,1.2-.53,1.96-.53,1.14,0,2.03.38,2.67,1.14ZM572.28,156.18c0,2.07.7,3.11,2.1,3.11s2.1-1.04,2.1-3.12-.7-3.11-2.09-3.11-2.12,1.04-2.12,3.12h.01Z"/>
        <path class="cls-3" d="M584.71,152l-.26,1.39c-.25-.06-.49-.09-.71-.09-.5,0-.91.19-1.22.56s-.55.95-.73,1.73v4.65h-1.42v-8.15h1.22l.14,1.65c.22-.61.51-1.07.88-1.38s.8-.46,1.3-.46c.29,0,.56.03.8.09h0Z"/>
        <path class="cls-3" d="M586.72,159.96c-.3-.31-.46-.76-.46-1.32v-9.82l1.42-.17v9.96c0,.23.04.39.12.5.08.1.21.15.39.15.2,0,.37-.03.53-.09l.37.99c-.34.19-.72.28-1.13.28-.53,0-.94-.16-1.24-.47h0Z"/>
        <path class="cls-3" d="M597.1,148.82v11.43h-1.25l-.14-1.13c-.27.41-.6.73-1.01.97-.4.23-.85.35-1.35.35-.97,0-1.72-.38-2.27-1.14-.54-.76-.81-1.79-.81-3.08,0-.83.13-1.58.39-2.23s.63-1.16,1.11-1.52c.49-.37,1.05-.55,1.7-.55.84,0,1.57.34,2.2,1.01v-4.27l1.42.17h.01ZM594.78,159c.31-.2.61-.5.9-.9v-3.99c-.27-.35-.55-.62-.86-.8-.3-.18-.65-.27-1.03-.27-.63,0-1.12.26-1.46.79-.35.53-.52,1.31-.52,2.35s.16,1.83.48,2.35c.32.52.78.77,1.38.77.43,0,.8-.1,1.11-.3h0Z"/>
        <circle class="cls-1" cx="431.82" cy="155.93" r="2.52"/>
      </g>
      <g id="Circular_Graphic" data-name="Circular Graphic">
        <path class="cls-5" d="M291.84,80.54h-26.31v-35c10.33,10.33,19.21,22.1,26.31,35Z"/>
        <path class="cls-3" d="M311.06,155.49c0,6.3-.38,12.52-1.11,18.63-.84,7.09-2.17,14.03-3.93,20.78-4.84,18.53-13.01,35.7-23.84,50.86-1.08,1.53-2.2,3.02-3.34,4.5-2.88,3.74-5.92,7.34-9.13,10.81-1.13,1.23-2.28,2.43-3.46,3.62-1.06,1.08-2.15,2.16-3.25,3.2-1.23,1.19-2.49,2.36-3.76,3.5-1.97,1.77-3.99,3.48-6.06,5.14-1.21.97-2.41,1.92-3.64,2.84-4.28,3.27-8.73,6.3-13.34,9.09-1.9,1.17-3.84,2.29-5.81,3.37-.03.02-.07.03-.11.07-1.14.62-2.29,1.23-3.45,1.83-2.75,1.43-5.55,2.78-8.41,4.03-.3.13-.59.27-.89.39-1.06.48-2.13.93-3.22,1.35-.12.07-.25.12-.38.15-1.05.44-2.11.86-3.19,1.26-1.23.48-2.48.93-3.73,1.36-1.74.62-3.48,1.19-5.25,1.74-1.61.51-3.25.98-4.89,1.44-2.19.6-4.39,1.16-6.63,1.66-1.09.25-2.2.5-3.32.72-2.68.55-5.39,1.04-8.12,1.45-.72.1-1.45.21-2.17.3-3.77.52-7.59.9-11.45,1.13-1.19.08-2.4.13-3.61.18-2,.08-4.03.12-6.05.12-1.36,0-2.72-.02-4.08-.06-1.24-.03-2.48-.08-3.72-.14-1.18-.06-2.37-.12-3.54-.22-1.24-.08-2.49-.18-3.72-.31-2.44-.22-4.87-.51-7.27-.87-1.69-.23-3.38-.5-5.06-.81-.1-.01-.19-.02-.28-.04-1.27-.22-2.52-.46-3.77-.73-2.27-.45-4.5-.96-6.73-1.54-1.17-.29-2.33-.6-3.5-.92-.8-.22-1.59-.44-2.38-.69-1.74-.5-3.46-1.04-5.17-1.62-3.78-1.26-7.49-2.65-11.14-4.19-1.28-.54-2.57-1.11-3.84-1.68-3.01-1.36-5.96-2.82-8.86-4.37-2.17-1.15-4.3-2.34-6.4-3.61-2.8-1.66-5.54-3.42-8.22-5.24-1.02-.7-2.01-1.39-3.01-2.1-1.29-.94-2.57-1.88-3.83-2.85-.88-.67-1.78-1.37-2.65-2.09-.61-.48-1.21-.96-1.8-1.46-1.34-1.1-2.65-2.22-3.95-3.37-.43-.38-.86-.76-1.29-1.15-1.16-1.04-2.3-2.1-3.43-3.19-3.9-3.75-7.62-7.7-11.12-11.84-1.04-1.22-2.05-2.46-3.03-3.71-13.33-16.76-23.27-36.31-28.79-57.66-3.23-12.48-4.94-25.56-4.94-39.05,0-3.65.12-7.27.38-10.85C5.94,63.84,73.27,0,155.5,0c38.98,0,74.61,14.35,101.89,38.04v48.34h37.43c.76,1.54,1.5,3.08,2.21,4.63-2.9-.59-6.29-.88-10.2-.88-7.72,0-14.01,2.34-18.88,7.05-4.88,4.69-7.31,10.59-7.31,17.69s2.28,13.23,6.85,17.71c4.57,4.48,10.82,6.73,18.77,6.73s13.77-1.88,18.59-5.62l-4.57-4.97c-3.08,3.16-7.46,4.73-13.16,4.73-5.23,0-9.5-1.68-12.8-5.04-3.31-3.36-4.97-7.74-4.97-13.15s1.61-10.3,4.83-13.89c3.23-3.58,7.51-5.39,12.85-5.39,5.7,0,10.36.83,13.03,2.34l.03-.08c7.02,17.72,10.88,37.04,10.88,57.26h.09Z"/>
        <path class="cls-6" d="M282.19,245.76c-1.08,1.53-2.2,3.02-3.34,4.5-4.07-5.09-8.65-9.77-13.68-13.9-.72,8.38,1.25,16.92,4.56,24.71-1.13,1.23-2.28,2.43-3.46,3.62-5.94-10.07-9.78-22.08-8.57-33.88-1.6-1.08-3.26-2.1-4.94-3.07-4.7-2.78-9.65-5.13-14.74-7.08-1.29-.51-2.6-.98-3.9-1.43.01,1.88.03,3.76.06,5.64.12,12.21.38,24.42.8,36.62,7.73,2.36,14.18,8.11,18.24,15.03-1.21.97-2.41,1.92-3.64,2.84-3.45-5.35-8.33-9.7-14.37-11.72.28,6.95.62,13.88,1.03,20.82-1.9,1.17-3.84,2.29-5.81,3.37-.03.02-.07.03-.11.07v-.29c.01-2.82.01-5.63,0-8.41-.02-4.89-.09-9.78-.17-14.67-2.9,2.4-5.23,5.41-7.06,8.75-.86,1.56-1.61,3.19-2.26,4.86-1.27,3.27-2.15,6.7-2.68,10.08-.21,1.23-.37,2.65-.48,4.15-.04.59-.08,1.18-.11,1.77-1.06.48-2.13.93-3.22,1.35-.13-2.83-.14-5.73.07-8.55.13-1.74.34-3.44.65-5.09.53-3.15,1.39-6.32,2.6-9.34.64-1.65,1.39-3.25,2.25-4.79,2.48-4.5,5.82-8.49,10.05-11.45-.24-10.46-.61-20.92-1.07-31.37-.11-2.59-.23-5.19-.38-7.78-.02-.65-.06-1.31-.09-1.96,0-.09-.01-.17-.01-.25-.07.01-.14.03-.21.06-13.02,2.99-24.63,10.14-33.98,19.63-1.19,1.21-2.35,2.46-3.47,3.73-4.56,5.23-8.47,11.04-11.65,17.16-.48.9-.93,1.81-1.36,2.73-.27.54-.52,1.1-.79,1.65-2.13,4.6-3.94,9.35-5.45,14.18-.59,1.85-1.13,3.72-1.63,5.6-2.35,8.83-3.82,17.92-4.65,27.04-1.19.08-2.4.13-3.61.18.66-9.45,1.97-18.88,4.21-28.05.46-1.92.97-3.84,1.54-5.74,1.49-5.11,3.31-10.12,5.5-15,.27-.6.54-1.19.82-1.79.41-.91.84-1.81,1.29-2.7,3.25-6.57,7.36-12.79,12.15-18.38,1.12-1.31,2.28-2.58,3.48-3.82,9.07-9.39,20.25-16.68,32.84-20.42.84-.25,1.68-.49,2.53-.71.72-.18,1.43-.34,2.15-.5-.04-.97-.1-1.94-.16-2.91-.2-3.79-.42-7.6-.65-11.39l-.52-8.37c-.08-3.99-3.15-7.18-8.02-9.83,7.64,1.44,15.03,3.02,22.09,4.7-3.66.6-6.58,1.67-6.78,4.92l-.03,8.38c-.04,5.04-.02,10.09,0,15.12,18.58,5.64,35.56,16.6,48.14,31.38Z"/>
        <path class="cls-4" d="M291.84,80.54h-26.31v-35c-2.6-2.6-5.29-5.1-8.06-7.51v48.34h37.43c-.97-1.97-1.99-3.9-3.05-5.83h-.01Z"/>
        <path class="cls-4" d="M300.35,128.7c-3.08,3.16-7.46,4.73-13.16,4.73-5.23,0-9.5-1.68-12.8-5.04-3.31-3.36-4.97-7.74-4.97-13.15s1.62-10.3,4.83-13.89c3.23-3.58,7.51-5.39,12.85-5.39,5.7,0,10.36.83,13.03,2.35l.03-.08c-.96-2.44-1.99-4.84-3.08-7.22-2.9-.59-6.29-.88-10.2-.88-7.72,0-14.01,2.34-18.88,7.05-4.88,4.69-7.31,10.59-7.31,17.69s2.28,13.23,6.85,17.71c4.57,4.48,10.82,6.73,18.77,6.73s13.77-1.88,18.59-5.62l-4.57-4.97.02-.02Z"/>
        <path class="cls-6" d="M61.91,287.35c0,.06,0,.1.02.15l-.12.02c.03-.06.06-.12.1-.18h0Z"/>
        <path id="Left_Root_Vector" data-name="Left Root Vector" class="cls-6" d="M144.23,310.56c-1.24-.08-2.49-.18-3.72-.31-.81-3.95-1.97-7.86-3.52-11.63-.92-2.28-1.98-4.5-3.21-6.64-1.85-3.26-4.04-6.33-6.59-9.08.58,5.75.87,11.5,1.02,17.13.03,2.32.03,4.65,0,6.98,0,.51,0,1.03-.02,1.55-.1-.01-.19-.02-.28-.04-1.27-.22-2.52-.46-3.77-.73.18-13.02-.66-26.04-3.32-38.74-.16-.72-.31-1.44-.48-2.16-.32-1.33-.66-2.67-1.04-4-2.28-8.15-5.62-16.28-10.54-23.12-.96-1.33-1.98-2.61-3.06-3.83-3.16-3.57-6.88-6.65-11.24-8.97-3.88-2.06-8.23-3.51-12.62-3.86-.02,2.17-.04,4.35-.04,6.52-.03,3.73-.06,7.46-.06,11.17-.02,4.99,0,9.98.03,14.95.4.14.8.3,1.18.45.6.24,1.18.5,1.74.76.77.36,1.54.75,2.27,1.17.1.06.2.1.29.17,1.96,1.11,3.77,2.38,5.46,3.8,4.62,3.84,8.28,8.72,11.12,14.1.63,1.22,1.23,2.46,1.78,3.73,2.74,6.23,4.47,12.97,5.35,19.5.23,1.74.42,3.47.58,5.2-1.74-.5-3.46-1.04-5.17-1.62-1.11-5.94-2.63-11.77-4.89-17.38-.23-.59-.48-1.17-.73-1.76-.3-.67-.61-1.35-.94-2.02-1.56-3.24-3.42-6.36-5.61-9.2-1.56-2.01-3.3-3.89-5.2-5.56-1.88-1.65-3.93-3.1-6.16-4.29-.33-.18-.67-.35-1.03-.52,0,.58,0,1.16.02,1.74.12,9.59.34,19.17.7,28.76-2.17-1.15-4.3-2.34-6.4-3.61.21-6.13.35-12.27.44-18.41.04-2.27.08-4.52.1-6.79.06-3.94.09-7.86.11-11.8-9.3,3.98-15.34,13.59-15.63,23.78-.07,1.01-.09,2.01-.08,3.02-.88-.67-1.78-1.37-2.65-2.09,0-.34,0-.69,0-1.03,0-8.34,3.11-16.79,9.35-22.51,2.69-2.49,5.67-4.49,9.06-5.85,0-5.57,0-11.16-.03-16.74,0-2.36-.03-4.7-.06-7.06-2.16.1-4.3.3-6.42.67-1.14.2-2.27.45-3.37.77-5.68,1.56-10.56,4.32-14.74,7.91,3.99,10.82,3.69,23.02.45,33.97-.32,1.23-.77,2.56-1.27,3.87-1.16-1.04-2.3-2.1-3.43-3.19,2.74-9.86,3.12-20.56-.2-30.23-4.63,5.27-8.21,11.65-10.92,18.39-1.04-1.22-2.05-2.46-3.03-3.71,5.96-14.79,15.82-27.14,31.63-32.18,2.99-.94,6.05-1.47,9.14-1.78.7-.07,1.39-.13,2.09-.18,0-.81-.02-1.63-.03-2.43-.09-5.9-.2-11.78-.33-17.68-.47-4.42,1.01-10.04-3.02-11.71h-.02s0,0-.02-.02c-.04-.01-.14-.06-.3-.1-.09-.03-.21-.07-.35-.1-.07-.02-.13-.03-.21-.04-1.42-.28-4.59-.31-9.82,2.56-7.4,4.06-22.13,10.76-37.93,11.43q-10.53.45.02-.01c5.96-.75,12.39-2.49,19.24-5.56,13.86-7.16,29.11-12.17,45.11-15.44-7.81,7.54-6.19,13.72-6.74,19.01-.1,3.88-.18,7.78-.23,11.67-.03,1.63-.06,3.25-.08,4.88,0,1.03-.02,2.05-.03,3.06,0,.35,0,.72,0,1.07,11.11.88,20.76,7,27.62,15.05.22.24.42.49.63.74.84,1.05,1.64,2.12,2.39,3.22,4.97,7.12,8.37,15.07,10.7,23.38.86,3.03,1.57,6.11,2.16,9.23.37,1.94.7,3.88.97,5.83,4.02,3.42,7.29,7.55,9.93,12.09,1.16,1.96,2.19,3.99,3.1,6.07,1.18,2.65,2.18,5.39,3.01,8.15.77,2.67,1.37,5.41,1.82,8.16v.05Z"/>
        <path id="Skyline_Vector" data-name="Skyline Vector" class="cls-1" d="M304.06,164.2l-9.84,6.85-2.04,14.56-4.39-.85c1.82-6.96.97-9.2.97-9.2l-5.57,2.68-.74,2.25-6.54-2.79-1.92-43.14,4.6-17.65-1.28-.33-1.28,2.47-5.46-.75s-.42-2.78-.42-3.21-1.18,0-1.18,0l-1.07,18.2-16.69,37.04-7.6-1.29.85-17.44-12.95-1.71-.43,16.81-4.17-.54v-5.13l-3.53-.43v-13.91l-8.89-.64v-3.22l-9.73-.32v2.47l-8.67-.43-.64,17.02h-3.43s-.53-21.73-.53-22.06-3.43.22-3.43.22v3.85l-3.53-.1v-4.07l-2.9.1.64,25.16c-1.38.32-1.6,2.78-1.6,2.78h-2.04l-.64-25.36-14.66-.54.74,24.19-1.6-.1-.64-10.18-5.77-.32.64,10.39h-3.96l-.43-15.95-5.78-.11-.74-7.28-4.82.11v7.28l-5.56.32v12.52l-3.86.11-.64-25.26h-11.24l1.39,20.02-2.04.32.43,5.67-3.96.32v-9.1l-4.71-.21-.64-18.1-4.92.22s-.11-14.67,0-14.99c.1-.32-2.25,0-2.25,0v15.42h-5.46l2.68,28.68-2.15.64-.85-11.45-10.6.32v10.92l-4.82.53c1.61,2.68.64,6.64.64,6.64-2.22-2.93-2.94-6.57-2.94-10.01-33.53,1.94-55.97,12.68-56.2,12.79-.12.07-.24.09-.37.09-.31,0-.61-.18-.75-.46-.2-.41-.02-.91.39-1.11.23-.12,23.04-11.04,56.98-12.96.32-5.25,2.05-9.63,2.05-9.63-21.62-3.85-38.86,6.11-38.86,6.11,0,0-9.09.11-19.8,1.07s-7.6,8.45-7.6,8.45l6.05,17.18c5.56-2.81,20.73-9.35,50.32-14.89.44-.08.88.21.96.66.09.45-.21.88-.66.97-29.49,5.52-44.75,12.18-50.06,14.85l1.43,4.03-6.32.74c-9.63-28.68-5.46-44.42-5.46-44.42,0,0,5.03-3.75-1.92-2.04-2.96.73-6.3.56-9.15.14-.25,3.58-.38,7.2-.38,10.85,0,13.48,1.71,26.57,4.94,39.05,10.53,2.49,23.66,2.25,38.87-4.58,69.24-35.77,173.26-17.84,230.42,1,8.51,2.8,20.52,4.77,31.72,3.95,1.76-6.76,3.09-13.69,3.93-20.78l-5.9-9.92-.04-.05ZM16.23,165.69s-2.61-3.03,6.67-4.56c9.28-1.54,14.41-.9,14.41-.9,0,0-11.77,9.63-21.08,5.45h0ZM234.35,175.79c-.01.44-.39.8-.83.8h-.02c-.46-.01-.82-.4-.81-.85l.75-22.81c.01-.45.41-.82.85-.8.46.01.82.4.81.85l-.75,22.81h0ZM237.56,176.77c-.02.44-.39.77-.83.77h-.04c-.46-.02-.81-.42-.79-.87l1.39-22.7c.03-.45.42-.81.88-.77.45.02.81.42.77.87l-1.39,22.7h.01ZM241.1,177.19c-.03.44-.4.79-.83.79h-.06c-.45-.03-.81-.42-.77-.87l1.28-22.7c.02-.45.44-.8.87-.79.45.03.81.42.79.88l-1.28,22.69h0ZM247.97,180.11l-5.07-1.65.37-7.42,6.91,1.36-2.21,7.71h0ZM274.05,125.8l-3.25-.77-.09-2.13,4.04.73-.7,2.18h0ZM275.96,119.83l-1.06,3.31c-1.36-.25-2.88-.54-4.21-.8l-.13-3.05,5.41.54h-.01ZM269.59,186.82l-16.41-5.5,1.57-7.78c8.14,2.21,16.18,5.78,16.18,5.78l-1.34,7.49h0ZM255.39,171.41l14.92-37.54h1.35l.34,42.24s-9.61-2.57-16.61-4.7h0ZM271.95,132.41h-.85l-.17-4.05c.73.17,1.46.33,2.16.49l-1.14,3.56h0ZM273.36,127.96c-.79-.13-1.64-.28-2.47-.42l-.08-1.89,3.07.67-.53,1.64h0ZM280.37,189.81l-5.63-1.43,1.28-6.99c5.46,2.23,5.56,3.07,5.56,3.14l-1.22,5.28h.01Z"/>
        <path id="Central_Root_Vector" data-name="Central Root Vector" class="cls-2" d="M258.27,254.17c-4.77-12.13-11.54-23.68-20.26-33.53-3.09-3.51-6.44-6.79-10.03-9.8-2.98-2.5-6.12-4.82-9.42-6.92-17.51-11.23-39.36-16.96-60.25-15.84.01-.27,0-.45,0-.72,0-5.69-.51-9.94,5.69-13.05-5.9-.3-11.84-.48-17.78-.49,5.07,1.98,5.81,6.53,5.57,9.74-14.45-.86-28.98,1.87-42.24,7.44-11.06,4.8-20.1,11.09-27.52,18.6-1.9,1.92-3.69,3.93-5.39,6.01-.71.85-1.39,1.73-2.06,2.61-1.49,1.99-2.91,4.05-4.26,6.16-6.95,11.02-11.78,23.66-15.24,37.44-.89,3.4-1.68,6.8-2.4,10.23,1.29,1.15,2.61,2.28,3.95,3.37,3.51-16.91,8.79-33.42,17.99-48.04.77,1.1,1.5,2.22,2.18,3.37,1.92,3.2,3.54,6.59,4.96,10.03.44,1.05.85,2.1,1.25,3.15,1.08,2.95,2.04,5.95,2.88,8.98-.98,1.07-1.96,2.17-2.91,3.27-2.18,2.53-4.27,5.14-6.28,7.78-1.59,2.09-3.13,4.2-4.62,6.32-2.53,3.75-4.92,7.61-7.15,11.54,1,.71,1.99,1.4,3.01,2.1,2.67-4.52,5.55-8.93,8.66-13.16,1.68-2.3,3.43-4.55,5.26-6.75.32-.41.66-.82,1.01-1.22,1.34-1.59,2.71-3.14,4.11-4.67.07-.07.13-.14.2-.21.03.12.06.25.09.38.67,2.91,1.26,5.84,1.76,8.79,1.67,9.91,2.36,20.01,2.39,30.05,1.27.58,2.56,1.14,3.84,1.68,0-.46.02-.94.02-1.4,1.77-4.08,3.83-8.06,6.23-11.78,1.27-1.98,2.64-3.89,4.13-5.71,1.26-1.56,2.6-3.05,4.02-4.46,1.99,6.68,3.23,13.58,3.89,20.5.23,3.06.35,6.22.4,9.35,1.16.32,2.32.63,3.5.92.03-1.28.06-2.57.04-3.85-.17-10.11-1.52-20.27-4.4-30.01.76-.63,1.55-1.24,2.37-1.82,1.08-.61,3.06-1.49,5.4-1.52,1.43-.02,3,.29,4.57,1.19.59.33,1.17.75,1.75,1.27.69.74,1.36,1.49,2.01,2.27.16.21.32.42.46.65l-.13-.28c3.16,3.72,6,7.73,8.45,11.95-.58.66-1.13,1.35-1.64,2.06-.92,1.22-1.75,2.49-2.51,3.82-2.65,4.63-4.46,9.86-5.57,15.03-.1.51-.2,1.01-.3,1.5.09.02.18.03.28.04,1.67.31,3.36.58,5.06.81.88-3.64,2.11-7.31,3.75-10.75.72-1.52,1.52-2.99,2.4-4.38.51-.82,1.05-1.6,1.63-2.37,2.95,6.04,5.22,12.4,6.75,18.9,1.24.07,2.48.11,3.72.14-1.42-7.85-3.78-15.56-7.1-22.86,5.74-5.41,13.72-6.42,21.45-5.25.01.01.03.01.04.01,1.35.19,2.69.46,3.99.82,3.57.95,6.98,2.49,10.13,4.45-2.84,6.84-3.88,14.2-3.33,21.47.72-.09,1.45-.2,2.17-.3-.06-6.61,1.25-13.22,4.08-19.19,1.29.94,2.52,1.95,3.71,3.02-.04,4.9.09,9.81.33,14.72,1.12-.22,2.22-.46,3.32-.72-.02-3.27,0-6.7.1-10.22,2.4,2.64,4.59,5.52,6.53,8.56,1.64-.45,3.27-.93,4.89-1.44-.21-.4-.44-.79-.66-1.18-2.81-4.93-6.34-9.49-10.4-13.36.34-5.55.93-11.18,1.85-16.62,2.54,2,4.94,4.15,7.09,6.49,3.05,3.3,5.8,6.82,8.32,10.52-.33,3.19-.66,8.37-.94,12.42,1.25-.43,2.5-.88,3.73-1.36.18-1.89.35-3.87.55-5.85.91,1.5,1.79,3.04,2.63,4.59.16.25.3.52.43.79-.02-.31-.03-.63-.06-.94,1.08-.42,2.16-.87,3.22-1.35.3-.12.59-.25.89-.39-.25-.46-.51-.93-.77-1.38-1.04-1.84-2.12-3.65-3.26-5.43-.73-1.18-1.49-2.34-2.28-3.48.16-1.36.33-2.64.5-3.83.44-3.43,1.05-7.61,1.88-12.19,1.07,1.69,2.13,3.38,3.15,5.08.39.63.76,1.26,1.13,1.89.45.82,1.22,2.22,2.04,3.74,1.21,2.23,2.54,4.7,3.17,5.86.52.88,1.63,3.13,2.85,5.72,1.16-.6,2.31-1.21,3.45-1.83.04-.03.08-.04.11-.07-.03-.08-.07-.15-.11-.22-1.57-3.44-3.13-6.7-4.28-8.71-.9-1.75-1.9-3.68-2.94-5.62-1.04-1.91-2.11-3.82-3.17-5.56-.37-.61-.73-1.21-1.1-1.77-.85-1.48-1.91-3.2-3.05-4.96,2.67-12.75,6.86-27.02,13.13-36.09,1.34-1.96,2.78-3.66,4.31-5.07.32.34.64.69.96,1.03,5.91,6.39,10.99,13.7,15.12,21.81,4.16,7.9,7.42,16.18,9.98,24.7,1.27-1.14,2.53-2.3,3.76-3.5-1.35-4.63-2.93-9.21-4.75-13.7l-.06.04ZM103.83,276.23c-1.44,1.8-2.78,3.69-4.02,5.65-1.7,2.69-3.22,5.51-4.57,8.42,0-.7,0-1.39,0-2.08-.15-4.96-.46-10.2-1.05-15.54-.39-3.5-.87-7.02-1.49-10.55-.48-2.73-1.04-5.46-1.68-8.16,1.74-1.71,3.52-3.4,5.36-5.01,2.9,3.63,5.34,7.68,7.41,11.8,1.74,3.4,3.21,6.91,4.47,10.51-1.57,1.56-3.05,3.22-4.45,4.97h.01ZM123.23,261.03c-1.27.52-2.51,1.08-3.65,1.71-.09.06-.19.1-.28.15-2.74,1.53-5.29,3.29-7.63,5.25-1.08-3.16-2.36-6.28-3.82-9.31-2.16-4.5-4.72-8.95-7.83-12.92,2.79-2.22,5.7-4.29,8.74-6.14,1.23-.75,2.49-1.47,3.77-2.13,3.55-1.85,7.29-3.36,11.23-4.41,9.24-2.53,19.19-3.36,28.77-2.65.04,3.82.12,8.59.17,13.47-2.29,4.04-6.92,6.44-10.9,8.83-3.97,2.1-8.19,4.06-12.36,5.73-1.99.8-4.15,1.56-6.22,2.42h0ZM152.61,264.17h0c-.09.2-.13,1-.12,2.61v.07c-.02.71-.04,1.4-.08,2.1-.52,6.29-3.52,9.04-5.06,10-.01,0-.03.01-.04.02-.28.11-.54.24-.81.39h-.01s-.03.01-.04.02c-1.74.88-3.34,1.95-4.81,3.15-3.58-6.66-8.03-12.85-13.3-18.35,6.16-2.19,17.64-6.54,24.41-12.3.01,4.73-.02,9.11-.14,12.29h0ZM152.5,224.8c-10.24-.51-20.4.58-30.25,3.47-4.48,1.36-8.72,3.21-12.73,5.42-1.29.72-2.57,1.47-3.82,2.27-5.8,3.66-11.11,8.11-15.99,12.99-1.95-6.84-4.52-13.39-7.91-19.3-1.32-2.3-2.75-4.5-4.32-6.57.03-.04.06-.09.09-.13,1.37-1.86,2.82-3.65,4.35-5.38,17.26-19.4,44.34-29.83,70.5-27.56.88,11.59.14,23.19.09,34.8h0ZM186.81,286.05c-4.61-3.61-9.77-6.38-15.32-8.01-1.35-.4-2.72-.72-4.13-.97-.56-.11-1.14-.2-1.71-.28-.23-.06-.5-.11-.8-.15-4.2-.7-5.67-8.13-6.16-14.43-.09-3.01-.15-6.02-.17-9.04,4.29,3.68,9.22,6.54,14.34,8.9,1.35.63,2.71,1.23,4.08,1.79.13.06.27.11.4.17,3.9,1.31,7.64,3.24,11.02,5.64-.82,5.43-1.31,10.91-1.55,16.38h0ZM189.26,264.51c-1.05-.7-2.12-1.34-3.23-1.96-1.82-1.1-4.73-2.15-6.76-2.99-.06-.02-.12-.06-.18-.08-1.36-.61-2.73-1.24-4.11-1.9-6.44-3.14-12.78-7.08-16.39-13.07h0c.07-6.03.12-13.34.1-19.71,7.64,1.25,14.78,4.88,21.23,8.96,2.48,1.69,4.89,3.52,7.21,5.44,1.23,1.01,2.43,2.06,3.62,3.13,1.47,1.34,2.91,2.71,4.31,4.13-3.03,5.64-4.54,11.87-5.8,18.05h0ZM208.74,282.76c-4.36-5.69-9.34-10.87-15.13-15.23,1.31-6.07,3.12-11.78,5.56-16.71,2.7,3.02,5.25,6.17,7.62,9.41l4.28,5.86s.02.03.03.06c-.97,5.51-1.75,11.06-2.37,16.61h.01ZM228.5,221.12c-.39.42-.77.85-1.15,1.29-3.86,4.65-6.48,10.2-8.72,15.66-2.71,7.1-4.75,14.4-6.32,21.81-.61-.85-1.18-1.65-1.71-2.38-4.82-6.76-10.25-13.2-16.39-18.91-1.17-1.11-2.38-2.18-3.61-3.22-2.94-2.51-6.04-4.83-9.29-6.97-5.28-3.5-11.39-6.46-17.51-8.25-1.66-.42-3.41-.84-5.17-1.1-.02-2.15-.08-4.04-.14-5.55-.18-5.95-.29-11.89-.1-17.84,2.57-.23,5.2-.3,7.74-.28,21.73.12,41.5,7.15,57.31,19.57,1.63,1.28,3.21,2.61,4.75,4,.08.07.16.13.22.2.37.32.71.64,1.06.97-.33.32-.65.64-.97.98v.02ZM61.81,287.52l.12-.02c0-.06-.02-.1-.02-.15-.04.06-.07.12-.1.18h0Z"/>
      </g>
    </g>
  </g>
</svg>